<svg xmlns="http://www.w3.org/2000/svg" xmlns:cc="http://web.resource.org/cc/" xmlns:svg="http://www.w3.org/2000/svg" xmlns:xlink="http://www.w3.org/1999/xlink" id="svg2" width="1052.362" height="744.094" version="1.0"><metadata id="metadata7"/><g id="layer1"><g id="g2997"><rect id="rect2067" width="464.237" height="419.391" x="447.354" y="197.197" rx="14.335" ry="17.743" style="opacity:1;fill:#90baf4;fill-opacity:1;stroke:#060000;stroke-width:2.28840661;stroke-miterlimit:4;stroke-dasharray:none;stroke-dashoffset:0;stroke-opacity:1"/><flowRoot id="flowRoot2954" transform="translate(189.90868,1.0101522)" xml:space="preserve"><flowRegion id="flowRegion2956"><rect id="rect2958" width="170" height="61.429" x="281.429" y="212.666"/></flowRegion><flowPara id="flowPara2171">store</flowPara></flowRoot><rect style="fill:#317fed;fill-opacity:1;stroke:#060000;stroke-width:2.30182266;stroke-linejoin:round;stroke-miterlimit:4;stroke-dasharray:none;stroke-dashoffset:0;stroke-opacity:1" id="rect2175" width="118.218" height="111.275" x="491.6" y="247.76" rx="7.151" ry="9.231"/><flowRoot id="flowRoot2177" transform="translate(223.8585,41.670449)" xml:space="preserve"><flowRegion id="flowRegion2179"><rect id="rect2181" width="170" height="61.429" x="281.429" y="212.666"/></flowRegion><flowPara id="flowPara2183">ufs</flowPara></flowRoot><path style="fill:#5b9d05;fill-opacity:1;fill-rule:evenodd;stroke:#000;stroke-width:1px;stroke-linecap:butt;stroke-linejoin:miter;stroke-opacity:1" id="path2187" d="M 474.29877,279.45598 L 507.63381,279.45598 L 513.69472,292.58796 L 506.62366,304.7098 L 474.29877,304.7098 L 481.87492,292.58796 L 474.29877,279.45598 z"/><rect style="fill:#317fed;fill-opacity:1;stroke:#060000;stroke-width:2;stroke-linejoin:round;stroke-miterlimit:4;stroke-dasharray:none;stroke-dashoffset:0;stroke-opacity:1" id="rect2191" width="115.662" height="85.863" x="493.071" y="503.278" rx="6.996" ry="7.123"/><flowRoot id="flowRoot2193" transform="translate(225.47992,297.33908)" xml:space="preserve"><flowRegion id="flowRegion2195"><rect id="rect2197" width="170" height="61.429" x="281.429" y="212.666"/></flowRegion><flowPara id="flowPara2199">ShoppingCart</flowPara></flowRoot><path style="fill:#5b9d05;fill-opacity:1;fill-rule:evenodd;stroke:#000;stroke-width:1px;stroke-linecap:butt;stroke-linejoin:miter;stroke-opacity:1" id="path2203" d="M 475.92019,535.12461 L 509.25523,535.12461 L 515.31614,548.25659 L 508.24508,560.37843 L 475.92019,560.37843 L 483.49634,548.25659 L 475.92019,535.12461 z"/><rect style="fill:#317fed;fill-opacity:1;stroke:#060000;stroke-width:2;stroke-linejoin:round;stroke-miterlimit:4;stroke-dasharray:none;stroke-dashoffset:0;stroke-opacity:1" id="rect2207" width="115.662" height="85.863" x="761.444" y="391.316" rx="6.996" ry="7.123"/><flowRoot id="flowRoot2209" transform="translate(487.8534,185.37751)" xml:space="preserve"><flowRegion id="flowRegion2211"><rect id="rect2213" width="170" height="61.429" x="281.429" y="212.666"/></flowRegion><flowPara id="flowPara2215">CurrencyConverter</flowPara></flowRoot><path style="fill:#5b9d05;fill-opacity:1;fill-rule:evenodd;stroke:#000;stroke-width:1px;stroke-linecap:butt;stroke-linejoin:miter;stroke-opacity:1" id="path2219" d="M 744.29367,423.16304 L 777.62871,423.16304 L 783.68962,436.29502 L 776.61856,448.41686 L 744.29367,448.41686 L 751.86982,436.29502 L 744.29367,423.16304 z"/><rect style="opacity:1;fill:#0064ff;fill-opacity:1;stroke:#000;stroke-width:.9612025;stroke-miterlimit:4;stroke-dasharray:none;stroke-dashoffset:0;stroke-opacity:1" id="rect2223" width="104.085" height="113.176" x="138.372" y="350.116" rx="0" ry=".049"/><path style="fill:#1a73fe;fill-rule:evenodd;stroke:#000;stroke-width:1px;stroke-linecap:butt;stroke-linejoin:miter;stroke-opacity:1;fill-opacity:1" id="path3197" d="M 138.21429,462.66591 L 115.35714,479.80877 L 267.85714,479.80877 L 241.78571,463.02305 L 138.21429,462.66591 z"/><rect style="opacity:1;fill:#f1f4f8;fill-opacity:1;stroke:#000;stroke-width:1;stroke-miterlimit:4;stroke-dasharray:none;stroke-dashoffset:0;stroke-opacity:1" id="rect3199" width="92.5" height="97.143" x="143.571" y="358.38" rx="3.929" ry="3.62"/><image id="image3323" width="58.571" height="78.571" x="156.241" y="366.689" xlink:href="C:\simon\tuscany\evangelism\whitepapers\shoppingcart.png"/><image id="image3342" width="58.571" height="78.571" x="526.429" y="270.523" xlink:href="C:\simon\tuscany\evangelism\whitepapers\shoppingcart.png"/><path style="fill:none;fill-rule:evenodd;stroke:#000;stroke-width:1px;stroke-linecap:butt;stroke-linejoin:miter;stroke-opacity:1" id="path3348" d="M 242.85714,374.80877 C 245.71429,374.80877 345.71429,374.80877 345.71429,374.80877 L 345.71429,291.95162 L 481.42858,291.95162"/><path style="fill:none;fill-rule:evenodd;stroke:#000;stroke-width:1px;stroke-linecap:butt;stroke-linejoin:miter;stroke-opacity:1" id="path3350" d="M 210.71429,406.95163 L 345,406.95163 L 345,437.66591 L 481.42857,437.66591"/><path style="fill:none;fill-rule:evenodd;stroke:#000;stroke-width:1px;stroke-linecap:butt;stroke-linejoin:miter;stroke-opacity:1" id="path3352" d="M 210.71429,439.09448 L 325.71429,439.09448 L 325.71429,548.3802 L 482.85714,548.3802"/><path style="fill:none;fill-rule:evenodd;stroke:#000;stroke-width:1px;stroke-linecap:butt;stroke-linejoin:miter;stroke-opacity:1" id="path3354" d="M 626.42857,436.23734 C 750,437.66591 752.14286,436.23734 752.14286,436.23734"/><flowRoot id="flowRoot3356" transform="translate(-94.285714,25)" xml:space="preserve"><flowRegion id="flowRegion3358"><rect id="rect3360" width="142.143" height="21.429" x="655" y="349.809"/></flowRegion><flowPara id="flowPara3362">CurrenyCode</flowPara></flowRoot><flowRoot id="flowRoot3364" transform="translate(-250.76562,-76.210859)" xml:space="preserve"><flowRegion id="flowRegion3366"><rect id="rect3368" width="142.143" height="21.429" x="655" y="349.809"/></flowRegion><flowPara id="flowPara3370">HTTP</flowPara></flowRoot><flowRoot id="flowRoot3372" transform="translate(-273.62277,70.931998)" xml:space="preserve"><flowRegion id="flowRegion3374"><rect id="rect3376" width="142.143" height="21.429" x="655" y="349.809"/></flowRegion><flowPara id="flowPara3378">JSONRPC</flowPara></flowRoot><flowRoot id="flowRoot3380" transform="translate(-243.62277,183.07485)" xml:space="preserve"><flowRegion id="flowRegion3382"><rect id="rect3384" width="142.143" height="21.429" x="655" y="349.809"/></flowRegion><flowPara id="flowPara3386">Atom</flowPara></flowRoot></g><rect style="fill:#317fed;fill-opacity:1;stroke:#060000;stroke-width:2;stroke-linejoin:round;stroke-miterlimit:4;stroke-dasharray:none;stroke-dashoffset:0;stroke-opacity:1" id="rect2988" width="115.662" height="85.863" x="491.569" y="392.701" rx="6.996" ry="7.123"/><flowRoot id="flowRoot2966" transform="translate(223.97819,186.76283)" xml:space="preserve"><flowRegion id="flowRegion2968"><rect id="rect2970" width="170" height="61.429" x="281.429" y="212.666"/></flowRegion><flowPara id="flowPara2972">Catalog</flowPara></flowRoot><rect style="opacity:1;fill:#fff62c;fill-opacity:1;stroke:#060000;stroke-width:1;stroke-linejoin:round;stroke-miterlimit:4;stroke-dasharray:none;stroke-dashoffset:0;stroke-opacity:1" id="rect3006" width="21.718" height="20.708" x="537.531" y="377.044" rx="10.859" ry="0"/><path style="fill:#5b9d05;fill-opacity:1;fill-rule:evenodd;stroke:#000;stroke-width:1px;stroke-linecap:butt;stroke-linejoin:miter;stroke-opacity:1" id="path3017" d="M 474.41846,424.54836 L 507.7535,424.54836 L 513.81441,437.68034 L 506.74335,449.80218 L 474.41846,449.80218 L 481.99461,437.68034 L 474.41846,424.54836 z"/><path style="fill:#ae62bf;fill-opacity:1;fill-rule:evenodd;stroke:#000;stroke-width:1px;stroke-linecap:butt;stroke-linejoin:miter;stroke-opacity:1" id="path3019" d="M 587.6709,422.71008 L 621.00594,422.71008 L 627.06685,435.84206 L 619.99579,447.9639 L 587.6709,447.9639 L 595.24705,435.84206 L 587.6709,422.71008 z"/></g></svg>